<?xml version="1.0" encoding="UTF-8" standalone="no"?>
<!-- Created with Inkscape (http://www.inkscape.org/) -->

<svg
   xmlns:dc="http://purl.org/dc/elements/1.1/"
   xmlns:cc="http://creativecommons.org/ns#"
   xmlns:rdf="http://www.w3.org/1999/02/22-rdf-syntax-ns#"
   xmlns:svg="http://www.w3.org/2000/svg"
   xmlns="http://www.w3.org/2000/svg"
   xmlns:sodipodi="http://sodipodi.sourceforge.net/DTD/sodipodi-0.dtd"
   xmlns:inkscape="http://www.inkscape.org/namespaces/inkscape"
   width="744.09448819"
   height="1052.3622047"
   id="svg2816"
   version="1.1"
   inkscape:version="0.47 r22583"
   sodipodi:docname="blood.svg">
  <defs
     id="defs2818">
    <inkscape:perspective
       sodipodi:type="inkscape:persp3d"
       inkscape:vp_x="0 : 526.18109 : 1"
       inkscape:vp_y="0 : 1000 : 0"
       inkscape:vp_z="744.09448 : 526.18109 : 1"
       inkscape:persp3d-origin="372.04724 : 350.78739 : 1"
       id="perspective2824" />
  </defs>
  <sodipodi:namedview
     id="base"
     pagecolor="#ffffff"
     bordercolor="#ffffff"
     borderopacity="0.0"
     inkscape:pageopacity="0.0"
     inkscape:pageshadow="0"
     inkscape:zoom="0.48047997"
     inkscape:cx="773.18222"
     inkscape:cy="218.65953"
     inkscape:document-units="px"
     inkscape:current-layer="layer1"
     showgrid="false"
     inkscape:window-width="1280"
     inkscape:window-height="749"
     inkscape:window-x="-2"
     inkscape:window-y="0"
     inkscape:window-maximized="1" />
  <metadata
     id="metadata2821">
    <rdf:RDF>
      <cc:Work
         rdf:about="">
        <dc:format>image/svg+xml</dc:format>
        <dc:type
           rdf:resource="http://purl.org/dc/dcmitype/StillImage" />
        <dc:title></dc:title>
      </cc:Work>
    </rdf:RDF>
  </metadata>
  <g
     inkscape:label="Layer 1"
     inkscape:groupmode="layer"
     id="layer1">
    <path
       style="fill:#970000;fill-opacity:1;stroke:#000000;stroke-width:1.07247007px;stroke-linecap:butt;stroke-linejoin:miter;stroke-opacity:1"
       d="m 205.92593,657.95595 c 43.63661,-13.87066 90.98256,-0.55008 103.80671,56.68619 48.25871,19.49301 80.89431,62.97984 84.19055,127.75262 16.48832,60.08381 -3.90712,127.4954 -60.07779,128.5939 -37.44422,20.83566 -59.4144,68.68454 -103.11099,76.35624 -47.55063,22.0891 -80.3182,-44.83 -126.822,-41.7112 C 77.310138,972.76722 76.946238,913.53702 29.274018,907.77637 -9.9493115,866.24044 -1.4392615,793.64004 10.703628,739.08347 c 20.90315,-40.94245 69.88995,-37.49633 94.932482,-78.51546 32.07272,-21.03135 69.36486,30.62439 100.28982,-2.61206 z"
       id="path2828"
       inkscape:export-filename="/home/ermolovd/workspace/9game/resources/blood.png"
       inkscape:export-xdpi="4.4999995"
       inkscape:export-ydpi="4.4999995" />
    <path
       style="fill:#970000;fill-opacity:1;stroke:#000000;stroke-width:0.31405228px;stroke-linecap:butt;stroke-linejoin:miter;stroke-opacity:1"
       d="m 514.7448,652.51919 c -14.6804,38.34406 -75.6723,38.07865 -93.3026,72.17117 -35.3479,49.80447 40.0987,74.94957 44.3925,114.76687 -11.0107,38.9677 -104.7516,63.5332 -47.0432,106.4802 37.371,21.8627 91.5177,26.0126 107.987,68.45997 13.4518,43.4262 70.9761,43.1026 112.0115,30.2629 47.6212,-21.9603 2.4796,-71.41097 -2.8327,-103.84097 17.1886,-37.6012 23.1304,-72.4813 3.7072,-109.8245 7.5661,-44.4607 72.6875,-35.5118 106.4962,-59.7004 69.7872,-5.2296 69.4214,-76.21927 11.15,-98.49992 -52.2712,-25.30705 -113.9488,-16.66877 -167.3841,1.17501 -25.9481,7.1849 -66.401,4.90642 -75.1818,-21.45033 z"
       id="path2835"
       inkscape:export-filename="/home/ermolovd/workspace/9game/resources/blood.png"
       inkscape:export-xdpi="4.4999995"
       inkscape:export-ydpi="4.4999995" />
    <path
       style="fill:#970000;fill-opacity:1;stroke:#000000;stroke-width:0.36238587px;stroke-linecap:butt;stroke-linejoin:miter;stroke-opacity:1"
       d="m 988.97153,699.91722 c -59.4255,-2.68424 -118.396,-83.61496 -175.7355,-27.76645 -45.2798,63.41176 41.0651,106.65472 49.8386,163.76305 29.2102,70.58853 -95.9063,122.11713 -24.7417,177.35088 60.0215,28.4816 130.9491,62.7199 194.96457,15.5775 47.7116,-53.29455 152.9259,57.5428 166.5213,-39.99475 -1.5631,-83.5957 -56.4261,-153.16372 -59.261,-236.87235 -14.771,-90.31168 -93.0499,-56.28867 -151.58627,-52.05788 z"
       id="path3613"
       inkscape:export-filename="/home/ermolovd/workspace/9game/resources/blood.png"
       inkscape:export-xdpi="4.4999995"
       inkscape:export-ydpi="4.4999995" />
  </g>
</svg>
