<?xml version="1.0" encoding="UTF-8" standalone="no"?>
<!-- Created with Inkscape (http://www.inkscape.org/) -->

<svg
   xmlns:dc="http://purl.org/dc/elements/1.1/"
   xmlns:cc="http://creativecommons.org/ns#"
   xmlns:rdf="http://www.w3.org/1999/02/22-rdf-syntax-ns#"
   xmlns:svg="http://www.w3.org/2000/svg"
   xmlns="http://www.w3.org/2000/svg"
   xmlns:sodipodi="http://sodipodi.sourceforge.net/DTD/sodipodi-0.dtd"
   xmlns:inkscape="http://www.inkscape.org/namespaces/inkscape"
   width="16"
   height="16"
   id="svg2834"
   version="1.1"
   inkscape:version="0.47 r22583"
   sodipodi:docname="creep.svg"
   inkscape:export-filename="/home/ermolovd/workspace/9game/resources/creep.png"
   inkscape:export-xdpi="90"
   inkscape:export-ydpi="90">
  <defs
     id="defs2836">
    <inkscape:perspective
       sodipodi:type="inkscape:persp3d"
       inkscape:vp_x="0 : 32 : 1"
       inkscape:vp_y="0 : 1000 : 0"
       inkscape:vp_z="64 : 32 : 1"
       inkscape:persp3d-origin="32 : 21.333333 : 1"
       id="perspective2842" />
    <inkscape:perspective
       id="perspective3628"
       inkscape:persp3d-origin="0.5 : 0.33333333 : 1"
       inkscape:vp_z="1 : 0.5 : 1"
       inkscape:vp_y="0 : 1000 : 0"
       inkscape:vp_x="0 : 0.5 : 1"
       sodipodi:type="inkscape:persp3d" />
  </defs>
  <sodipodi:namedview
     id="base"
     pagecolor="#ffffff"
     bordercolor="#666666"
     borderopacity="1.0"
     inkscape:pageopacity="0"
     inkscape:pageshadow="2"
     inkscape:zoom="15.556349"
     inkscape:cx="25.458802"
     inkscape:cy="3.4337491"
     inkscape:current-layer="g3675"
     showgrid="true"
     inkscape:document-units="px"
     inkscape:grid-bbox="true"
     inkscape:window-width="1280"
     inkscape:window-height="749"
     inkscape:window-x="-2"
     inkscape:window-y="0"
     inkscape:window-maximized="1"
     inkscape:showpageshadow="false" />
  <metadata
     id="metadata2839">
    <rdf:RDF>
      <cc:Work
         rdf:about="">
        <dc:format>image/svg+xml</dc:format>
        <dc:type
           rdf:resource="http://purl.org/dc/dcmitype/StillImage" />
        <dc:title></dc:title>
      </cc:Work>
    </rdf:RDF>
  </metadata>
  <g
     id="layer1"
     inkscape:label="Layer 1"
     inkscape:groupmode="layer"
     transform="translate(0,-48.000002)">
    <g
       id="g3675"
       transform="matrix(-0.25000021,0,0,-0.24999989,15.999588,63.999578)">
      <path
         transform="matrix(1.0247453,0,0,1.0247453,-0.23289791,-0.23289547)"
         d="m 62.181818,31.454546 a 30.727272,30.727272 0 1 1 -61.45454406,0 30.727272,30.727272 0 1 1 61.45454406,0 z"
         sodipodi:ry="30.727272"
         sodipodi:rx="30.727272"
         sodipodi:cy="31.454546"
         sodipodi:cx="31.454546"
         id="path2844"
         style="fill:#c87137;fill-opacity:1;stroke:#000000;stroke-opacity:1"
         sodipodi:type="arc"
         inkscape:export-xdpi="112.49997"
         inkscape:export-ydpi="112.49997"
         inkscape:export-filename="/home/ermolovd/workspace/9game/resources/creep.png" />
      <path
         transform="matrix(1.0731708,0,0,1.0731707,-0.82926757,-9.8065553)"
         d="m 18.90909,48.272728 a 1.3636364,1.3636364 0 1 1 -2.727272,0 1.3636364,1.3636364 0 1 1 2.727272,0 z"
         sodipodi:ry="1.3636364"
         sodipodi:rx="1.3636364"
         sodipodi:cy="48.272728"
         sodipodi:cx="17.545454"
         id="path3618"
         style="fill:#241f1c;fill-opacity:1;stroke:#000000;stroke-opacity:1"
         sodipodi:type="arc"
         inkscape:export-filename="/home/ermolovd/workspace/9game/resources/creep.png"
         inkscape:export-xdpi="112.49997"
         inkscape:export-ydpi="112.49997" />
      <path
         d="m 18.90909,48.272728 a 1.3636364,1.3636364 0 1 1 -2.727272,0 1.3636364,1.3636364 0 1 1 2.727272,0 z"
         sodipodi:ry="1.3636364"
         sodipodi:rx="1.3636364"
         sodipodi:cy="48.272728"
         sodipodi:cx="17.545454"
         id="path3618-6"
         style="fill:#241f1c;fill-opacity:1;stroke:#000000;stroke-opacity:1"
         sodipodi:type="arc"
         transform="matrix(1.0731708,0,0,1.0731707,27.170731,-9.8065553)"
         inkscape:export-filename="/home/ermolovd/workspace/9game/resources/creep.png"
         inkscape:export-xdpi="112.49997"
         inkscape:export-ydpi="112.49997" />
      <g
         id="g3645"
         inkscape:export-filename="/home/ermolovd/workspace/9game/resources/creep.png"
         inkscape:export-xdpi="112.49997"
         inkscape:export-ydpi="112.49997"
         transform="matrix(0,-1.0000013,0.99999872,0,-64.00161,-0.00168578)">
        <path
           transform="matrix(0.72460435,0.72460528,-0.72460342,0.72460435,-32.001677,-13.584228)"
           d="m 62.181818,31.454546 c 0,16.970204 -13.757068,30.727272 -30.727272,30.727272 -16.970204,0 -30.72727206,-13.757068 -30.72727206,-30.727272 0,-16.970204 13.75706806,-30.72727206 30.72727206,-30.72727206 16.970204,0 30.727272,13.75706806 30.727272,30.72727206 z"
           sodipodi:ry="30.727272"
           sodipodi:rx="30.727272"
           sodipodi:cy="31.454546"
           sodipodi:cx="31.454546"
           id="path3639"
           style="fill:#c87137;fill-opacity:1;stroke:#000000;stroke-opacity:1"
           sodipodi:type="arc"
           inkscape:export-xdpi="112.50005"
           inkscape:export-ydpi="112.50005"
           inkscape:export-filename="/home/ermolovd/workspace/9game/resources/creep.png" />
        <path
           transform="matrix(0.75884635,0.75884732,-0.75884531,0.75884628,-25.653783,-20.775526)"
           d="m 18.90909,48.272728 c 0,0.753116 -0.61052,1.363636 -1.363636,1.363636 -0.753116,0 -1.363636,-0.61052 -1.363636,-1.363636 0,-0.753116 0.61052,-1.363636 1.363636,-1.363636 0.753116,0 1.363636,0.61052 1.363636,1.363636 z"
           sodipodi:ry="1.3636364"
           sodipodi:rx="1.3636364"
           sodipodi:cy="48.272728"
           sodipodi:cx="17.545454"
           id="path3641"
           style="fill:#241f1c;fill-opacity:1;stroke:#000000;stroke-opacity:1"
           sodipodi:type="arc" />
        <path
           d="m 18.90909,48.272728 c 0,0.753116 -0.61052,1.363636 -1.363636,1.363636 -0.753116,0 -1.363636,-0.61052 -1.363636,-1.363636 0,-0.753116 0.61052,-1.363636 1.363636,-1.363636 0.753116,0 1.363636,0.61052 1.363636,1.363636 z"
           sodipodi:ry="1.3636364"
           sodipodi:rx="1.3636364"
           sodipodi:cy="48.272728"
           sodipodi:cx="17.545454"
           id="path3643"
           style="fill:#241f1c;fill-opacity:1;stroke:#000000;stroke-opacity:1"
           sodipodi:type="arc"
           transform="matrix(0.75884635,0.75884732,-0.75884531,0.75884628,-5.854794,-0.9765113)" />
      </g>
    </g>
  </g>
</svg>
