<?xml version="1.0" encoding="UTF-8" standalone="no"?>
<!-- Created with Inkscape (http://www.inkscape.org/) -->

<svg
   xmlns:dc="http://purl.org/dc/elements/1.1/"
   xmlns:cc="http://creativecommons.org/ns#"
   xmlns:rdf="http://www.w3.org/1999/02/22-rdf-syntax-ns#"
   xmlns:svg="http://www.w3.org/2000/svg"
   xmlns="http://www.w3.org/2000/svg"
   xmlns:sodipodi="http://sodipodi.sourceforge.net/DTD/sodipodi-0.dtd"
   xmlns:inkscape="http://www.inkscape.org/namespaces/inkscape"
   width="16"
   height="16"
   id="svg2834"
   version="1.1"
   inkscape:version="0.47 r22583"
   sodipodi:docname="creep.svg">
  <defs
     id="defs2836">
    <inkscape:perspective
       sodipodi:type="inkscape:persp3d"
       inkscape:vp_x="0 : 32 : 1"
       inkscape:vp_y="0 : 1000 : 0"
       inkscape:vp_z="64 : 32 : 1"
       inkscape:persp3d-origin="32 : 21.333333 : 1"
       id="perspective2842" />
    <inkscape:perspective
       id="perspective3628"
       inkscape:persp3d-origin="0.5 : 0.33333333 : 1"
       inkscape:vp_z="1 : 0.5 : 1"
       inkscape:vp_y="0 : 1000 : 0"
       inkscape:vp_x="0 : 0.5 : 1"
       sodipodi:type="inkscape:persp3d" />
  </defs>
  <sodipodi:namedview
     id="base"
     pagecolor="#ffffff"
     bordercolor="#666666"
     borderopacity="1.0"
     inkscape:pageopacity="0"
     inkscape:pageshadow="2"
     inkscape:zoom="15.556349"
     inkscape:cx="27.236098"
     inkscape:cy="0.91445803"
     inkscape:current-layer="layer1"
     showgrid="true"
     inkscape:document-units="px"
     inkscape:grid-bbox="true"
     inkscape:window-width="1280"
     inkscape:window-height="749"
     inkscape:window-x="-2"
     inkscape:window-y="0"
     inkscape:window-maximized="1"
     inkscape:showpageshadow="false" />
  <metadata
     id="metadata2839">
    <rdf:RDF>
      <cc:Work
         rdf:about="">
        <dc:format>image/svg+xml</dc:format>
        <dc:type
           rdf:resource="http://purl.org/dc/dcmitype/StillImage" />
        <dc:title></dc:title>
      </cc:Work>
    </rdf:RDF>
  </metadata>
  <g
     id="layer1"
     inkscape:label="Layer 1"
     inkscape:groupmode="layer"
     transform="translate(0,-48.000002)">
    <g
       id="g3675"
       transform="matrix(0.25000021,0,0,0.24999989,-4.2603713e-4,47.999584)">
      <path
         transform="matrix(1.0247453,0,0,1.0247453,-0.23289791,-0.23289547)"
         d="m 62.181818,31.454546 c 0,16.970204 -13.757068,30.727272 -30.727272,30.727272 -16.970204,0 -30.72727206,-13.757068 -30.72727206,-30.727272 0,-16.970204 13.75706806,-30.72727206 30.72727206,-30.72727206 16.970204,0 30.727272,13.75706806 30.727272,30.72727206 z"
         sodipodi:ry="30.727272"
         sodipodi:rx="30.727272"
         sodipodi:cy="31.454546"
         sodipodi:cx="31.454546"
         id="path2844"
         style="fill:#c87137;fill-opacity:1;stroke:#000000;stroke-opacity:1"
         sodipodi:type="arc" />
      <path
         transform="matrix(1.0731708,0,0,1.0731707,-0.82926757,-2.8048785)"
         d="m 18.90909,48.272728 c 0,0.753116 -0.61052,1.363636 -1.363636,1.363636 -0.753116,0 -1.363636,-0.61052 -1.363636,-1.363636 0,-0.753116 0.61052,-1.363636 1.363636,-1.363636 0.753116,0 1.363636,0.61052 1.363636,1.363636 z"
         sodipodi:ry="1.3636364"
         sodipodi:rx="1.3636364"
         sodipodi:cy="48.272728"
         sodipodi:cx="17.545454"
         id="path3618"
         style="fill:#241f1c;fill-opacity:1;stroke:#000000;stroke-opacity:1"
         sodipodi:type="arc" />
      <path
         d="m 18.90909,48.272728 c 0,0.753116 -0.61052,1.363636 -1.363636,1.363636 -0.753116,0 -1.363636,-0.61052 -1.363636,-1.363636 0,-0.753116 0.61052,-1.363636 1.363636,-1.363636 0.753116,0 1.363636,0.61052 1.363636,1.363636 z"
         sodipodi:ry="1.3636364"
         sodipodi:rx="1.3636364"
         sodipodi:cy="48.272728"
         sodipodi:cx="17.545454"
         id="path3618-6"
         style="fill:#241f1c;fill-opacity:1;stroke:#000000;stroke-opacity:1"
         sodipodi:type="arc"
         transform="matrix(1.0731708,0,0,1.0731707,27.170731,-2.8048772)" />
      <path
         sodipodi:open="true"
         sodipodi:end="5.7595865"
         sodipodi:start="3.6651914"
         transform="matrix(1.0075306,0,0,0.92997906,-0.69894571,-1.4531183)"
         d="m 18.04703,63.409093 c 4.594005,-5.174257 14.768645,-6.947088 22.725696,-3.95973 2.529047,0.949494 4.629186,2.315158 6.089332,3.95973"
         sodipodi:ry="10.818182"
         sodipodi:rx="16.636364"
         sodipodi:cy="68.818184"
         sodipodi:cx="32.454544"
         id="path3667"
         style="fill:#241f1c;fill-opacity:1;stroke:#000000;stroke-opacity:1"
         sodipodi:type="arc" />
    </g>
  </g>
</svg>
